<!-- This Source Code Form is subject to the terms of the Mozilla Public
   - License, v. 2.0. If a copy of the MPL was not distributed with this
   - file, You can obtain one at http://mozilla.org/MPL/2.0/. -->
<svg width="32" height="32" viewBox="0 0 32 32" fill="none" xmlns="http://www.w3.org/2000/svg">
<g clip-path="url(#clip0_22634_26026)">
<path d="M7.89652 14.6505C7.89652 14.6505 10.4757 13.8905 11.5453 12.9605C11.8652 12.6805 12.1851 12.3805 12.455 12.0505C12.8948 11.5205 13.2547 10.9205 13.5646 10.2905C13.8645 9.66055 14.4743 7.97055 14.7742 7.02055C13.3247 5.27055 11.9651 5.06055 11.9651 5.06055C11.9651 5.06055 11.2754 7.44055 10.2657 9.13055C9.98582 9.60055 9.57595 10.0105 9.11611 10.3105C8.20642 10.9205 5.93718 11.6905 3.98784 12.4305C3.63796 13.7405 7.89652 14.6405 7.89652 14.6405V14.6505Z" fill="#15141A"/>
<path d="M13.9653 22.6598C13.9653 22.6598 13.9653 22.6598 13.9653 22.6498C13.9153 22.5298 13.8653 22.4098 13.8053 22.2998C13.7753 22.2298 13.7454 22.1398 13.7154 22.0698C13.6554 21.9398 13.6054 21.8098 13.5354 21.6798C13.3955 21.3998 13.2555 21.1298 13.0856 20.8698C13.0656 20.8398 13.0456 20.8098 13.0256 20.7898C12.9656 20.6998 12.9056 20.6198 12.8457 20.5298C12.7457 20.3798 12.6457 20.2398 12.5358 20.0998C12.5058 20.0598 12.4658 20.0198 12.4358 19.9798C12.3758 19.9098 12.3158 19.8298 12.2559 19.7598C12.1859 19.6898 12.1259 19.6098 12.0559 19.5398C11.886 19.3698 11.716 19.1998 11.5261 19.0498C11.2862 18.8598 11.0363 18.6898 10.7764 18.5398C9.95663 18.0498 9.03695 17.7298 8.13725 17.4398C6.56778 16.9298 5.0283 16.3698 3.49882 15.7598C2.6491 15.4198 1.20959 14.8098 1.49949 13.6398C1.50949 13.5898 1.53948 13.5098 1.53948 13.5098C1.53948 13.5098 1.4795 13.5398 1.4695 13.5498C1.40952 13.5798 1.33955 13.6198 1.27957 13.6598C0.529821 14.1098 0 14.9498 0 15.8798C0 16.7998 0.459845 17.8098 1.24958 18.3198C1.4795 18.4598 1.72942 18.5598 1.96933 18.6698C2.25924 18.8098 2.55913 18.9398 2.85903 19.0598C3.5588 19.3498 4.26856 19.6198 4.97832 19.8898C5.69807 20.1598 6.40783 20.4398 7.11759 20.7198C7.45748 20.8598 7.80736 21.0098 8.14725 21.1598C8.21722 21.1898 8.26721 21.2198 8.33718 21.2498C8.48713 21.3198 8.64708 21.3898 8.79703 21.4798C8.90699 21.5398 9.01695 21.6098 9.12691 21.6798C9.58676 21.9798 9.98662 22.3898 10.2765 22.8598C10.4365 23.1198 10.5664 23.3898 10.7064 23.6598C10.7264 23.6898 10.7464 23.7198 10.7564 23.7598C10.9263 24.0998 11.0863 24.4498 11.2262 24.8098C11.2462 24.8698 11.2762 24.9198 11.2962 24.9798C11.3762 25.1998 11.4661 25.4098 11.5461 25.6398C11.816 26.3898 11.976 26.9298 11.976 26.9298C11.976 26.9298 13.3355 26.7198 14.785 24.9698C14.5951 24.3398 14.2652 23.4098 13.9753 22.6598H13.9653Z" fill="#15141A"/>
<path d="M27.999 12.4395C26.5495 11.8895 24.93 11.3195 23.8104 10.8095C23.7804 10.7995 23.7504 10.7795 23.7204 10.7695C23.5905 10.7095 23.4705 10.6495 23.3606 10.5895C23.3106 10.5695 23.2706 10.5395 23.2306 10.5195C23.1107 10.4495 22.9907 10.3895 22.9007 10.3295C22.9007 10.3295 22.8807 10.3295 22.8807 10.3195C22.4209 10.0195 22.021 9.60949 21.7311 9.13949C21.5512 8.85949 21.4112 8.55949 21.2613 8.25949C21.0813 7.88949 20.9114 7.51949 20.7714 7.15949C20.7614 7.11949 20.7415 7.08949 20.7315 7.04949C20.6315 6.79949 20.5415 6.56949 20.4615 6.34949C20.1716 5.53949 19.9217 4.70949 19.6618 3.88949C19.192 2.40949 18.4822 0.709492 16.8928 0.159492C15.2133 -0.420508 13.6638 0.659492 12.8941 2.43949C12.8941 2.41949 13.114 2.42949 13.134 2.42949C13.3639 2.42949 13.5939 2.46949 13.8138 2.53949C14.6835 2.79949 15.4033 3.43949 15.9531 4.13949C16.3129 4.59949 16.5529 5.13949 16.7528 5.69949C16.8528 5.95949 16.9327 6.22949 17.0227 6.48949C17.2726 7.23949 17.5125 7.99949 17.7725 8.73949C17.9224 9.14949 18.0824 9.54949 18.2623 9.94949C18.3223 10.0895 18.3723 10.2095 18.4222 10.2995C18.4722 10.4095 18.5422 10.5095 18.5922 10.6095C18.6422 10.6995 18.6722 10.7895 18.7221 10.8695C18.7521 10.9195 18.7821 10.9595 18.8121 10.9995C18.9321 11.2095 19.072 11.3995 19.212 11.5995C19.2919 11.7095 19.3619 11.8195 19.4419 11.9195C19.4719 11.9595 19.5019 12.0095 19.5319 12.0495C19.7018 12.2595 19.8917 12.4495 20.0917 12.6295C20.1217 12.6595 20.1417 12.6895 20.1716 12.7195C20.2616 12.7995 20.3416 12.8795 20.4316 12.9495C20.4316 12.9495 20.4316 12.9495 20.4416 12.9595C20.7614 13.2395 21.2213 13.4995 21.7011 13.7395C21.7811 13.7795 21.8611 13.8195 21.941 13.8595C21.961 13.8595 21.981 13.8795 22.001 13.8895C22.041 13.9095 22.071 13.9195 22.111 13.9395C22.3809 14.0595 22.6608 14.1695 22.9407 14.2695C22.9607 14.2695 22.9907 14.2895 23.0207 14.2995C23.3006 14.3995 23.5705 14.4895 23.8504 14.5795C23.8604 14.5795 23.8804 14.5795 23.8904 14.5895C24.0103 14.6295 24.0803 14.6495 24.0803 14.6495C24.0803 14.6495 24.0903 14.6495 24.1003 14.6495H24.1103C24.1103 14.6495 28.3689 13.7495 28.019 12.4395H27.999Z" fill="#15141A"/>
<path d="M30.6805 13.6207C30.6205 13.5807 30.5605 13.5507 30.4905 13.5107C30.4805 13.5107 30.4206 13.4707 30.4206 13.4707C30.4206 13.4707 30.4506 13.5607 30.4605 13.6007C30.7504 14.7707 29.3109 15.3807 28.4612 15.7207C26.9317 16.3307 25.3923 16.8907 23.8228 17.4007C22.6332 17.7907 21.4236 18.2207 20.4339 19.0207C18.6445 20.4907 17.9648 22.6107 17.275 24.7207C17.175 25.0307 17.0751 25.3507 16.9751 25.6707C16.7952 26.2407 16.5852 26.8207 16.2953 27.3307C16.2154 27.4607 16.1454 27.5907 16.0554 27.7107C16.0254 27.7607 15.9854 27.8107 15.9555 27.8507C14.376 29.8707 12.8665 29.5507 12.8865 29.5707C13.6562 31.3507 15.2057 32.4207 16.8851 31.8507C18.4746 31.3007 19.1844 29.6007 19.6542 28.1207C19.7842 27.7107 19.9141 27.3007 20.0441 26.8907C20.4839 25.5007 20.9538 24.1207 21.7235 22.8707C22.0134 22.4007 22.4133 21.9907 22.8731 21.6907C22.9831 21.6207 23.093 21.5607 23.203 21.4907C23.7428 21.2007 24.3126 20.9607 24.8824 20.7307C25.5922 20.4407 26.3119 20.1707 27.0217 19.9007C27.7315 19.6307 28.4412 19.3607 29.141 19.0707C29.4409 18.9407 29.7408 18.8207 30.0307 18.6807C30.2706 18.5707 30.5205 18.4707 30.7505 18.3307C31.5402 17.8307 32 16.8207 32 15.8907C32 14.9607 31.4702 14.1107 30.6905 13.6407L30.6805 13.6207Z" fill="#15141A"/>
</g>
<defs>
<clipPath id="clip0_22634_26026">
<rect width="32" height="32" fill="white"/>
</clipPath>
</defs>
</svg>
