<!-- This Source Code Form is subject to the terms of the Mozilla Public
   - License, v. 2.0. If a copy of the MPL was not distributed with this
   - file, You can obtain one at http://mozilla.org/MPL/2.0/. -->
<svg width="16" height="16" viewBox="0 0 16 16" fill="none" xmlns="http://www.w3.org/2000/svg">
<g clip-path="url(#clip0_22773_74303)">
<g clip-path="url(#paint0_diamond_22773_74303_clip_path)"><g transform="matrix(-0.00840892 -0.00988228 -0.0751123 0.00781342 9.52361 17.6153)"><rect x="0" y="0" width="1153.71" height="105.788" fill="url(#paint0_diamond_22773_74303)" opacity="1" shape-rendering="crispEdges"/><rect x="0" y="0" width="1153.71" height="105.788" transform="scale(1 -1)" fill="url(#paint0_diamond_22773_74303)" opacity="1" shape-rendering="crispEdges"/><rect x="0" y="0" width="1153.71" height="105.788" transform="scale(-1 1)" fill="url(#paint0_diamond_22773_74303)" opacity="1" shape-rendering="crispEdges"/><rect x="0" y="0" width="1153.71" height="105.788" transform="scale(-1)" fill="url(#paint0_diamond_22773_74303)" opacity="1" shape-rendering="crispEdges"/></g></g><path d="M0.759655 6.80463C0.610862 7.39238 1.3367 7.69503 1.76074 7.8646C2.5258 8.17174 3.29736 8.44936 4.08093 8.70697C4.67548 8.90206 5.28103 9.11766 5.77557 9.51583C6.66964 10.2502 7.00867 11.3091 7.35369 12.3651C7.4037 12.5192 7.4517 12.6797 7.50271 12.8408C7.59471 13.1269 7.69772 13.4141 7.84273 13.6697C7.88024 13.7347 7.92024 13.7977 7.96424 13.8578C7.97624 13.8738 7.988 13.8873 8 13.9038C7.9945 13.9113 7.9885 13.9193 7.983 13.9268C7.19193 14.9362 6.43612 14.7797 6.44662 14.7882C6.48162 14.8682 6.26811 14.378 6.1671 14.0618C6.10209 13.8588 6.03709 13.6532 5.97058 13.4471C5.97208 13.4456 5.97358 13.4441 5.97508 13.4421C5.75606 12.7468 5.52054 12.0575 5.13401 11.4312C4.9885 11.1956 4.78949 10.9915 4.55897 10.8404C4.50546 10.8054 4.45096 10.7729 4.39495 10.7424C4.12593 10.5953 3.84041 10.4778 3.55738 10.3622C3.20236 10.2176 2.84433 10.0821 2.4868 9.94502C2.13277 9.80946 1.77874 9.6739 1.42921 9.52834C1.2792 9.46581 1.12969 9.40128 0.982174 9.33175C0.862164 9.27523 0.735653 9.2252 0.623144 9.15417C0.227112 8.90356 -0.000906944 8.39834 -0.000906944 7.93613C-0.000906944 7.16679 0.782751 6.74756 0.782751 6.74756C0.767969 6.77803 0.762994 6.79067 0.759655 6.80463Z"/>
<g clip-path="url(#paint1_diamond_22773_74303_clip_path)"><g transform="matrix(0.00688207 -0.00868617 -0.0169034 -0.0645386 7.95556 16.0067)"><rect x="0" y="0" width="1211.94" height="143.199" fill="url(#paint1_diamond_22773_74303)" opacity="1" shape-rendering="crispEdges"/><rect x="0" y="0" width="1211.94" height="143.199" transform="scale(1 -1)" fill="url(#paint1_diamond_22773_74303)" opacity="1" shape-rendering="crispEdges"/><rect x="0" y="0" width="1211.94" height="143.199" transform="scale(-1 1)" fill="url(#paint1_diamond_22773_74303)" opacity="1" shape-rendering="crispEdges"/><rect x="0" y="0" width="1211.94" height="143.199" transform="scale(-1)" fill="url(#paint1_diamond_22773_74303)" opacity="1" shape-rendering="crispEdges"/></g></g><path d="M15.3433 6.81753C15.3128 6.79852 15.2192 6.74756 15.2192 6.74756C15.2192 6.74756 15.2317 6.78392 15.2372 6.80693C15.3827 7.39319 14.6587 7.69642 14.2347 7.86649C13.4696 8.17363 12.698 8.45125 11.9145 8.70886C11.3199 8.90395 10.7144 9.11955 10.2198 9.51772C9.32576 10.252 8.98673 11.311 8.6417 12.367C8.5917 12.5211 8.5437 12.6816 8.49269 12.8427C8.40068 13.1288 8.29768 13.416 8.15266 13.6716C8.11516 13.7366 8.07516 13.7996 8.03115 13.8596C8.01365 13.8832 7.99615 13.9082 7.97915 13.9312C7.18808 14.9406 6.43447 14.7809 6.44497 14.7894C6.8305 15.6778 7.60162 16.2177 8.44219 15.9281C9.23575 15.6544 9.59178 14.8031 9.8278 14.0637C9.89281 13.8606 9.95781 13.6551 10.0243 13.449C10.0228 13.4475 10.0213 13.446 10.0198 13.444C10.2388 12.7487 10.4744 12.0594 10.8609 11.4331C11.0064 11.1975 11.2054 10.9934 11.4359 10.8423C11.4894 10.8073 11.5444 10.7748 11.5999 10.7443C11.869 10.5972 12.154 10.4796 12.4375 10.3641C12.7925 10.2195 13.1506 10.084 13.5081 9.94691C13.8621 9.81135 14.2162 9.67579 14.5657 9.53023C14.7157 9.4677 14.8652 9.40317 15.0127 9.33364C15.1327 9.27712 15.2592 9.22709 15.3718 9.15606C15.7693 8.90595 15.9963 8.40073 15.9973 7.93852C15.9988 7.47382 15.7328 7.05763 15.3438 6.81753H15.3433Z"/>
<g clip-path="url(#paint2_diamond_22773_74303_clip_path)"><g transform="matrix(0.00999591 -0.00970186 -0.00883184 -0.0848903 0.738529 8.62923)"><rect x="0" y="0" width="779.862" height="89.9141" fill="url(#paint2_diamond_22773_74303)" opacity="1" shape-rendering="crispEdges"/><rect x="0" y="0" width="779.862" height="89.9141" transform="scale(1 -1)" fill="url(#paint2_diamond_22773_74303)" opacity="1" shape-rendering="crispEdges"/><rect x="0" y="0" width="779.862" height="89.9141" transform="scale(-1 1)" fill="url(#paint2_diamond_22773_74303)" opacity="1" shape-rendering="crispEdges"/><rect x="0" y="0" width="779.862" height="89.9141" transform="scale(-1)" fill="url(#paint2_diamond_22773_74303)" opacity="1" shape-rendering="crispEdges"/></g></g><path d="M0.757722 6.80545C0.764691 6.7759 0.774754 6.76111 0.778755 6.75011C1.66483 6.2689 3.87698 5.60992 4.55653 5.15772C4.78655 5.00665 4.98607 4.80256 5.13158 4.56696C5.63112 3.7631 5.88064 2.83669 6.16567 1.94229C6.26667 1.62565 6.44519 1.21597 6.44519 1.21597C6.44519 1.21597 6.5567 1.21047 6.5672 1.21097C6.68321 1.21297 6.79872 1.23298 6.90923 1.26599C7.34576 1.39605 7.70329 1.71469 7.97931 2.06635C7.98631 2.07535 7.99081 2.08636 7.99731 2.09586C7.8283 2.31996 7.71179 2.58008 7.61528 2.84669C7.56728 2.97875 7.52378 3.11181 7.47977 3.24187C7.35326 3.61704 7.23675 3.9952 7.10324 4.36787C6.97173 4.73503 6.82322 5.09769 6.6312 5.43784C6.43869 5.77949 6.20067 6.09663 5.91114 6.36225C5.86614 6.40377 5.82014 6.44429 5.77213 6.4828C5.27759 6.88098 4.67154 7.09658 4.07749 7.29166C3.41394 7.50976 2.75689 7.75037 2.10683 8.00298C1.98982 7.95746 1.87481 7.91194 1.7583 7.86542C1.33477 7.69584 0.611553 7.39649 0.757722 6.80545Z"/>
<g clip-path="url(#paint3_diamond_22773_74303_clip_path)"><g transform="matrix(-0.00982296 -0.0109918 -0.0837418 0.0125868 17.6319 10.9972)"><rect x="0" y="0" width="1062.55" height="99.544" fill="url(#paint3_diamond_22773_74303)" opacity="1" shape-rendering="crispEdges"/><rect x="0" y="0" width="1062.55" height="99.544" transform="scale(1 -1)" fill="url(#paint3_diamond_22773_74303)" opacity="1" shape-rendering="crispEdges"/><rect x="0" y="0" width="1062.55" height="99.544" transform="scale(-1 1)" fill="url(#paint3_diamond_22773_74303)" opacity="1" shape-rendering="crispEdges"/><rect x="0" y="0" width="1062.55" height="99.544" transform="scale(-1)" fill="url(#paint3_diamond_22773_74303)" opacity="1" shape-rendering="crispEdges"/></g></g><path d="M8.44521 0.0777056C9.24828 0.321313 9.5948 1.2027 9.83082 1.94202C10.1158 2.83642 10.3659 3.76282 10.8649 4.56668C11.0104 4.80228 11.2094 5.00637 11.44 5.15744C12.1195 5.60963 14.3347 6.26542 15.2208 6.74663C15.2243 6.75764 15.2338 6.78565 15.2388 6.80516C15.3843 7.39142 14.6617 7.69555 14.2377 7.86512C14.1212 7.91214 14.0062 7.95716 13.8892 8.00268C13.2391 7.75007 12.582 7.50947 11.9185 7.29137C11.3239 7.09629 10.7184 6.88069 10.2239 6.48252C10.1764 6.444 10.1303 6.40348 10.0848 6.36196C9.79532 6.09585 9.5578 5.77921 9.36479 5.43756C9.17277 5.09741 9.02426 4.73475 8.89275 4.36759C8.75924 3.99493 8.64273 3.61676 8.51622 3.24159C8.47221 3.11154 8.42871 2.97848 8.38071 2.84642C8.2802 2.5688 8.16119 2.29618 7.98017 2.06608C7.70365 1.71442 7.34662 1.39578 6.91008 1.26573C6.79908 1.23271 6.68357 1.2122 6.56806 1.2107C6.55756 1.2107 6.44693 1.2157 6.44693 1.2157C6.44693 1.2157 7.0556 -0.343979 8.44521 0.0777056Z"/>
</g>
<defs>
<clipPath id="paint0_diamond_22773_74303_clip_path"><path d="M0.759655 6.80463C0.610862 7.39238 1.3367 7.69503 1.76074 7.8646C2.5258 8.17174 3.29736 8.44936 4.08093 8.70697C4.67548 8.90206 5.28103 9.11766 5.77557 9.51583C6.66964 10.2502 7.00867 11.3091 7.35369 12.3651C7.4037 12.5192 7.4517 12.6797 7.50271 12.8408C7.59471 13.1269 7.69772 13.4141 7.84273 13.6697C7.88024 13.7347 7.92024 13.7977 7.96424 13.8578C7.97624 13.8738 7.988 13.8873 8 13.9038C7.9945 13.9113 7.9885 13.9193 7.983 13.9268C7.19193 14.9362 6.43612 14.7797 6.44662 14.7882C6.48162 14.8682 6.26811 14.378 6.1671 14.0618C6.10209 13.8588 6.03709 13.6532 5.97058 13.4471C5.97208 13.4456 5.97358 13.4441 5.97508 13.4421C5.75606 12.7468 5.52054 12.0575 5.13401 11.4312C4.9885 11.1956 4.78949 10.9915 4.55897 10.8404C4.50546 10.8054 4.45096 10.7729 4.39495 10.7424C4.12593 10.5953 3.84041 10.4778 3.55738 10.3622C3.20236 10.2176 2.84433 10.0821 2.4868 9.94502C2.13277 9.80946 1.77874 9.6739 1.42921 9.52834C1.2792 9.46581 1.12969 9.40128 0.982174 9.33175C0.862164 9.27523 0.735653 9.2252 0.623144 9.15417C0.227112 8.90356 -0.000906944 8.39834 -0.000906944 7.93613C-0.000906944 7.16679 0.782751 6.74756 0.782751 6.74756C0.767969 6.77803 0.762994 6.79067 0.759655 6.80463Z"/></clipPath><clipPath id="paint1_diamond_22773_74303_clip_path"><path d="M15.3433 6.81753C15.3128 6.79852 15.2192 6.74756 15.2192 6.74756C15.2192 6.74756 15.2317 6.78392 15.2372 6.80693C15.3827 7.39319 14.6587 7.69642 14.2347 7.86649C13.4696 8.17363 12.698 8.45125 11.9145 8.70886C11.3199 8.90395 10.7144 9.11955 10.2198 9.51772C9.32576 10.252 8.98673 11.311 8.6417 12.367C8.5917 12.5211 8.5437 12.6816 8.49269 12.8427C8.40068 13.1288 8.29768 13.416 8.15266 13.6716C8.11516 13.7366 8.07516 13.7996 8.03115 13.8596C8.01365 13.8832 7.99615 13.9082 7.97915 13.9312C7.18808 14.9406 6.43447 14.7809 6.44497 14.7894C6.8305 15.6778 7.60162 16.2177 8.44219 15.9281C9.23575 15.6544 9.59178 14.8031 9.8278 14.0637C9.89281 13.8606 9.95781 13.6551 10.0243 13.449C10.0228 13.4475 10.0213 13.446 10.0198 13.444C10.2388 12.7487 10.4744 12.0594 10.8609 11.4331C11.0064 11.1975 11.2054 10.9934 11.4359 10.8423C11.4894 10.8073 11.5444 10.7748 11.5999 10.7443C11.869 10.5972 12.154 10.4796 12.4375 10.3641C12.7925 10.2195 13.1506 10.084 13.5081 9.94691C13.8621 9.81135 14.2162 9.67579 14.5657 9.53023C14.7157 9.4677 14.8652 9.40317 15.0127 9.33364C15.1327 9.27712 15.2592 9.22709 15.3718 9.15606C15.7693 8.90595 15.9963 8.40073 15.9973 7.93852C15.9988 7.47382 15.7328 7.05763 15.3438 6.81753H15.3433Z"/></clipPath><clipPath id="paint2_diamond_22773_74303_clip_path"><path d="M0.757722 6.80545C0.764691 6.7759 0.774754 6.76111 0.778755 6.75011C1.66483 6.2689 3.87698 5.60992 4.55653 5.15772C4.78655 5.00665 4.98607 4.80256 5.13158 4.56696C5.63112 3.7631 5.88064 2.83669 6.16567 1.94229C6.26667 1.62565 6.44519 1.21597 6.44519 1.21597C6.44519 1.21597 6.5567 1.21047 6.5672 1.21097C6.68321 1.21297 6.79872 1.23298 6.90923 1.26599C7.34576 1.39605 7.70329 1.71469 7.97931 2.06635C7.98631 2.07535 7.99081 2.08636 7.99731 2.09586C7.8283 2.31996 7.71179 2.58008 7.61528 2.84669C7.56728 2.97875 7.52378 3.11181 7.47977 3.24187C7.35326 3.61704 7.23675 3.9952 7.10324 4.36787C6.97173 4.73503 6.82322 5.09769 6.6312 5.43784C6.43869 5.77949 6.20067 6.09663 5.91114 6.36225C5.86614 6.40377 5.82014 6.44429 5.77213 6.4828C5.27759 6.88098 4.67154 7.09658 4.07749 7.29166C3.41394 7.50976 2.75689 7.75037 2.10683 8.00298C1.98982 7.95746 1.87481 7.91194 1.7583 7.86542C1.33477 7.69584 0.611553 7.39649 0.757722 6.80545Z"/></clipPath><clipPath id="paint3_diamond_22773_74303_clip_path"><path d="M8.44521 0.0777056C9.24828 0.321313 9.5948 1.2027 9.83082 1.94202C10.1158 2.83642 10.3659 3.76282 10.8649 4.56668C11.0104 4.80228 11.2094 5.00637 11.44 5.15744C12.1195 5.60963 14.3347 6.26542 15.2208 6.74663C15.2243 6.75764 15.2338 6.78565 15.2388 6.80516C15.3843 7.39142 14.6617 7.69555 14.2377 7.86512C14.1212 7.91214 14.0062 7.95716 13.8892 8.00268C13.2391 7.75007 12.582 7.50947 11.9185 7.29137C11.3239 7.09629 10.7184 6.88069 10.2239 6.48252C10.1764 6.444 10.1303 6.40348 10.0848 6.36196C9.79532 6.09585 9.5578 5.77921 9.36479 5.43756C9.17277 5.09741 9.02426 4.73475 8.89275 4.36759C8.75924 3.99493 8.64273 3.61676 8.51622 3.24159C8.47221 3.11154 8.42871 2.97848 8.38071 2.84642C8.2802 2.5688 8.16119 2.29618 7.98017 2.06608C7.70365 1.71442 7.34662 1.39578 6.91008 1.26573C6.79908 1.23271 6.68357 1.2122 6.56806 1.2107C6.55756 1.2107 6.44693 1.2157 6.44693 1.2157C6.44693 1.2157 7.0556 -0.343979 8.44521 0.0777056Z"/></clipPath><linearGradient id="paint0_diamond_22773_74303" x1="0" y1="0" x2="500" y2="500" gradientUnits="userSpaceOnUse">
<stop stop-color="#FF9728"/>
<stop offset="0.705932" stop-color="#ED49AE"/>
<stop offset="1" stop-color="#9959FF"/>
</linearGradient>
<linearGradient id="paint1_diamond_22773_74303" x1="0" y1="0" x2="500" y2="500" gradientUnits="userSpaceOnUse">
<stop stop-color="#9959FF"/>
<stop offset="0.374174" stop-color="#ED49AE"/>
<stop offset="0.833502" stop-color="#FF9728"/>
</linearGradient>
<linearGradient id="paint2_diamond_22773_74303" x1="0" y1="0" x2="500" y2="500" gradientUnits="userSpaceOnUse">
<stop stop-color="#FF9728"/>
<stop offset="0.660356" stop-color="#ED49AE"/>
<stop offset="0.938149" stop-color="#9959FF"/>
</linearGradient>
<linearGradient id="paint3_diamond_22773_74303" x1="0" y1="0" x2="500" y2="500" gradientUnits="userSpaceOnUse">
<stop offset="0.0583225" stop-color="#FF9728"/>
<stop offset="0.586183" stop-color="#ED49AE"/>
<stop offset="1" stop-color="#9959FF"/>
</linearGradient>
<clipPath id="clip0_22773_74303">
<rect width="16" height="16" fill="white"/>
</clipPath>
</defs>
</svg>
