<!-- This Source Code Form is subject to the terms of the Mozilla Public
   - License, v. 2.0. If a copy of the MPL was not distributed with this
   - file, You can obtain one at http://mozilla.org/MPL/2.0/. -->
<svg width="48" height="48" viewBox="0 0 48 48" fill="none" xmlns="http://www.w3.org/2000/svg">
<g clip-path="url(#clip0_22768_28904)">
<path d="M43.9811 8.87782C43.5851 9.15339 43.0137 8.99479 42.7595 8.59662C42.5087 8.17595 42.3726 7.62931 42.2028 7.16927C42.097 6.88132 42.0262 6.59113 41.8226 6.34368C41.6809 6.17046 41.5043 6.05573 41.2973 5.9725C40.8519 5.79591 40.3829 5.67218 39.9375 5.48996C39.8261 5.44385 39.6349 5.36624 39.5359 5.30775C39.3076 5.1874 39.1186 5.02318 39.041 4.7701C38.9735 4.55639 38.9881 4.31007 39.0939 4.1121C39.4932 3.36075 41.2579 3.37087 41.817 2.7185C41.9958 2.50816 42.0824 2.22696 42.1758 1.97051C42.2005 1.89965 42.2219 1.81304 42.2568 1.74781C42.3524 1.42949 42.6403 0.55441 42.8349 0.329453C42.9496 0.18998 43.1037 0.0909989 43.2769 0.0448828C43.5053 -0.013606 43.7493 0.0235119 43.9541 0.140489C44.2442 0.310332 44.4388 0.731001 44.5198 1.04257C44.5603 1.13255 44.6121 1.29902 44.6435 1.39125C44.7144 1.59484 44.783 1.8018 44.8505 2.00988C44.9157 2.20784 44.9866 2.4238 45.098 2.60377C45.1756 2.72749 45.2802 2.8321 45.4039 2.91308C45.6637 3.08293 45.9449 3.14141 46.2329 3.25277C46.7087 3.43498 47.4105 3.56771 47.7851 3.93214C48.0292 4.17059 48.064 4.62725 47.8964 4.91183C47.8256 5.0288 47.757 5.10304 47.6523 5.1964C47.3801 5.4281 46.5264 5.7093 46.1688 5.82403C45.2903 6.10522 45.1115 6.2447 44.8213 7.10628L44.5581 7.87563C44.4343 8.23669 44.323 8.65736 43.9833 8.87669L43.9811 8.87782Z" fill="#15141A"/>
<g clip-path="url(#paint0_diamond_22768_28904_clip_path)"><g transform="matrix(0.00781662 -0.00635747 0.057913 0.0158295 39.5756 7.91971)"><rect x="0" y="0" width="1426.23" height="176.219" fill="url(#paint0_diamond_22768_28904)" opacity="1" shape-rendering="crispEdges"/><rect x="0" y="0" width="1426.23" height="176.219" transform="scale(1 -1)" fill="url(#paint0_diamond_22768_28904)" opacity="1" shape-rendering="crispEdges"/><rect x="0" y="0" width="1426.23" height="176.219" transform="scale(-1 1)" fill="url(#paint0_diamond_22768_28904)" opacity="1" shape-rendering="crispEdges"/><rect x="0" y="0" width="1426.23" height="176.219" transform="scale(-1)" fill="url(#paint0_diamond_22768_28904)" opacity="1" shape-rendering="crispEdges"/></g></g><path d="M43.9811 8.87782C43.5851 9.15339 43.0137 8.99479 42.7595 8.59662C42.5087 8.17595 42.3726 7.62931 42.2028 7.16927C42.097 6.88132 42.0262 6.59113 41.8226 6.34368C41.6809 6.17046 41.5043 6.05573 41.2973 5.9725C40.8519 5.79591 40.3829 5.67218 39.9375 5.48996C39.8261 5.44385 39.6349 5.36624 39.5359 5.30775C39.3076 5.1874 39.1186 5.02318 39.041 4.7701C38.9735 4.55639 38.9881 4.31007 39.0939 4.1121C39.4932 3.36075 41.2579 3.37087 41.817 2.7185C41.9958 2.50816 42.0824 2.22696 42.1758 1.97051C42.2005 1.89965 42.2219 1.81304 42.2568 1.74781C42.3524 1.42949 42.6403 0.55441 42.8349 0.329453C42.9496 0.18998 43.1037 0.0909989 43.2769 0.0448828C43.5053 -0.013606 43.7493 0.0235119 43.9541 0.140489C44.2442 0.310332 44.4388 0.731001 44.5198 1.04257C44.5603 1.13255 44.6121 1.29902 44.6435 1.39125C44.7144 1.59484 44.783 1.8018 44.8505 2.00988C44.9157 2.20784 44.9866 2.4238 45.098 2.60377C45.1756 2.72749 45.2802 2.8321 45.4039 2.91308C45.6637 3.08293 45.9449 3.14141 46.2329 3.25277C46.7087 3.43498 47.4105 3.56771 47.7851 3.93214C48.0292 4.17059 48.064 4.62725 47.8964 4.91183C47.8256 5.0288 47.757 5.10304 47.6523 5.1964C47.3801 5.4281 46.5264 5.7093 46.1688 5.82403C45.2903 6.10522 45.1115 6.2447 44.8213 7.10628L44.5581 7.87563C44.4343 8.23669 44.323 8.65736 43.9833 8.87669L43.9811 8.87782Z"/>
<g clip-path="url(#paint1_diamond_22768_28904_clip_path)"><g transform="matrix(-0.0252268 -0.0296468 -0.225337 0.0234403 28.5684 52.8493)"><rect x="0" y="0" width="1170.82" height="109.561" fill="url(#paint1_diamond_22768_28904)" opacity="1" shape-rendering="crispEdges"/><rect x="0" y="0" width="1170.82" height="109.561" transform="scale(1 -1)" fill="url(#paint1_diamond_22768_28904)" opacity="1" shape-rendering="crispEdges"/><rect x="0" y="0" width="1170.82" height="109.561" transform="scale(-1 1)" fill="url(#paint1_diamond_22768_28904)" opacity="1" shape-rendering="crispEdges"/><rect x="0" y="0" width="1170.82" height="109.561" transform="scale(-1)" fill="url(#paint1_diamond_22768_28904)" opacity="1" shape-rendering="crispEdges"/></g></g><path d="M2.27652 20.4173C1.83014 22.1805 4.00766 23.0885 5.27977 23.5972C7.57496 24.5186 9.88965 25.3515 12.2403 26.1243C14.024 26.7096 15.8406 27.3564 17.3243 28.5509C20.0065 30.7539 21.0236 33.9308 22.0586 37.0987C22.2087 37.5609 22.3527 38.0426 22.5057 38.5258C22.7817 39.3842 23.0907 40.2456 23.5258 41.0124C23.6383 41.2075 23.7583 41.3966 23.8903 41.5767C23.9263 41.6247 23.9616 41.6652 23.9976 41.7147C23.9811 41.7372 23.9631 41.7612 23.9466 41.7837C21.5734 44.8121 19.3059 44.3424 19.3374 44.3679C19.4424 44.608 18.8019 43.1374 18.4989 42.189C18.3038 41.5797 18.1088 40.9629 17.9093 40.3446C17.9138 40.3401 17.9183 40.3356 17.9228 40.3296C17.2658 38.2437 16.5592 36.1758 15.3996 34.297C14.9631 33.5901 14.366 32.9779 13.6745 32.5247C13.5139 32.4196 13.3504 32.3221 13.1824 32.2305C12.3754 31.7893 11.5188 31.4367 10.6697 31.09C9.60462 30.6563 8.53054 30.2497 7.45795 29.8385C6.39586 29.4318 5.33377 29.0251 4.28519 28.5884C3.83515 28.4008 3.38661 28.2073 2.94408 27.9987C2.58405 27.8291 2.20452 27.679 1.86699 27.4659C0.67889 26.7141 -0.00516701 25.1984 -0.00516701 23.8118C-0.00516701 21.5038 2.34581 20.2461 2.34581 20.2461C2.30146 20.3375 2.28654 20.3754 2.27652 20.4173Z"/>
<g clip-path="url(#paint2_diamond_22768_28904_clip_path)"><g transform="matrix(0.0206462 -0.0260585 -0.0507102 -0.193616 23.8679 48.0176)"><rect x="0" y="0" width="1234.9" height="147.589" fill="url(#paint2_diamond_22768_28904)" opacity="1" shape-rendering="crispEdges"/><rect x="0" y="0" width="1234.9" height="147.589" transform="scale(1 -1)" fill="url(#paint2_diamond_22768_28904)" opacity="1" shape-rendering="crispEdges"/><rect x="0" y="0" width="1234.9" height="147.589" transform="scale(-1 1)" fill="url(#paint2_diamond_22768_28904)" opacity="1" shape-rendering="crispEdges"/><rect x="0" y="0" width="1234.9" height="147.589" transform="scale(-1)" fill="url(#paint2_diamond_22768_28904)" opacity="1" shape-rendering="crispEdges"/></g></g><path d="M46.031 20.4501C45.9395 20.3931 45.6588 20.2402 45.6588 20.2402C45.6588 20.2402 45.6962 20.3493 45.7127 20.4184C46.1492 22.1771 43.9773 23.0868 42.7052 23.597C40.41 24.5184 38.0953 25.3513 35.7446 26.1242C33.961 26.7094 32.1443 27.3562 30.6607 28.5507C27.9785 30.7537 26.9614 33.9306 25.9263 37.0985C25.7763 37.5607 25.6323 38.0424 25.4793 38.5256C25.2033 39.384 24.8943 40.2454 24.4592 41.0122C24.3467 41.2073 24.2267 41.3964 24.0947 41.5765C24.0422 41.647 23.9897 41.7221 23.9387 41.7911C21.5655 44.8194 19.3046 44.3403 19.3361 44.3658C20.4927 47.0309 22.8061 48.6506 25.3278 47.7817C27.7085 46.9609 28.7766 44.4067 29.4846 42.1888C29.6796 41.5795 29.8747 40.9627 30.0742 40.3444C30.0697 40.3399 30.0652 40.3354 30.0607 40.3294C30.7177 38.2435 31.4243 36.1756 32.5839 34.2968C33.0204 33.59 33.6175 32.9777 34.309 32.5245C34.4695 32.4194 34.6346 32.3219 34.8011 32.2304C35.6081 31.7892 36.4632 31.4365 37.3138 31.0899C38.3789 30.6562 39.4529 30.2495 40.5255 29.8383C41.5876 29.4316 42.6497 29.0249 43.6983 28.5882C44.1483 28.4007 44.5969 28.2071 45.0394 27.9985C45.3994 27.8289 45.779 27.6788 46.1165 27.4657C47.3091 26.7154 47.9901 25.1997 47.9931 23.8131C47.9976 22.419 47.1996 21.1705 46.0325 20.4501H46.031Z"/>
<g clip-path="url(#paint3_diamond_22768_28904_clip_path)"><g transform="matrix(0.0299877 -0.0291056 -0.0264955 -0.254671 2.21876 25.8896)"><rect x="0" y="0" width="796.582" height="93.4281" fill="url(#paint3_diamond_22768_28904)" opacity="1" shape-rendering="crispEdges"/><rect x="0" y="0" width="796.582" height="93.4281" transform="scale(1 -1)" fill="url(#paint3_diamond_22768_28904)" opacity="1" shape-rendering="crispEdges"/><rect x="0" y="0" width="796.582" height="93.4281" transform="scale(-1 1)" fill="url(#paint3_diamond_22768_28904)" opacity="1" shape-rendering="crispEdges"/><rect x="0" y="0" width="796.582" height="93.4281" transform="scale(-1)" fill="url(#paint3_diamond_22768_28904)" opacity="1" shape-rendering="crispEdges"/></g></g><path d="M2.27634 20.4183C2.29725 20.3297 2.32744 20.2853 2.33944 20.2523C4.99766 18.8086 11.6341 16.8317 13.6728 15.4751C14.3628 15.0219 14.9614 14.4096 15.3979 13.7028C16.8965 11.2913 17.6451 8.51202 18.5002 5.82883C18.8032 4.87891 19.3387 3.64987 19.3387 3.64987C19.3387 3.64987 19.6733 3.63336 19.7048 3.63486C20.0528 3.64086 20.3993 3.70089 20.7309 3.79994C22.0405 4.19011 23.113 5.14603 23.9411 6.201C23.9621 6.22801 23.9756 6.26103 23.9951 6.28954C23.4881 6.96184 23.1385 7.74218 22.849 8.54204C22.705 8.93821 22.5745 9.33739 22.4425 9.72756C22.063 10.8531 21.7134 11.9876 21.3129 13.1056C20.9184 14.207 20.4728 15.295 19.8968 16.3155C19.3192 17.3404 18.6052 18.2919 17.7366 19.0887C17.6016 19.2133 17.4636 19.3348 17.3196 19.4504C15.8359 20.6449 14.0178 21.2917 12.2357 21.8769C10.245 22.5312 8.27383 23.2531 6.32367 24.0109C5.97264 23.8743 5.62761 23.7378 5.27808 23.5982C4.00748 23.0895 1.83783 22.1914 2.27634 20.4183Z"/>
<g clip-path="url(#paint4_diamond_22768_28904_clip_path)"><g transform="matrix(-0.0294689 -0.0329754 -0.251225 0.0377604 52.8932 32.993)"><rect x="0" y="0" width="1077.92" height="102.867" fill="url(#paint4_diamond_22768_28904)" opacity="1" shape-rendering="crispEdges"/><rect x="0" y="0" width="1077.92" height="102.867" transform="scale(1 -1)" fill="url(#paint4_diamond_22768_28904)" opacity="1" shape-rendering="crispEdges"/><rect x="0" y="0" width="1077.92" height="102.867" transform="scale(-1 1)" fill="url(#paint4_diamond_22768_28904)" opacity="1" shape-rendering="crispEdges"/><rect x="0" y="0" width="1077.92" height="102.867" transform="scale(-1)" fill="url(#paint4_diamond_22768_28904)" opacity="1" shape-rendering="crispEdges"/></g></g><path d="M25.3332 0.234582C27.7424 0.965402 28.782 3.60956 29.49 5.82754C30.3451 8.51071 31.0952 11.2899 32.5923 13.7015C33.0288 14.4083 33.6259 15.0206 34.3174 15.4738C36.3561 16.8304 43.0016 18.7977 45.6599 20.2414C45.6704 20.2744 45.6989 20.3584 45.7139 20.4169C46.1504 22.1757 43.9827 23.0881 42.7106 23.5968C42.3611 23.7379 42.0161 23.873 41.665 24.0095C39.7149 23.2517 37.7437 22.5299 35.753 21.8756C33.9694 21.2903 32.1527 20.6435 30.6691 19.449C30.5266 19.3335 30.3886 19.2119 30.2521 19.0874C29.3835 18.289 28.671 17.3391 28.0919 16.3141C27.5159 15.2937 27.0703 14.2057 26.6758 13.1042C26.2753 11.9862 25.9257 10.8517 25.5462 9.72625C25.4142 9.33608 25.2837 8.9369 25.1397 8.54073C24.8381 7.70786 24.4811 6.89 23.9381 6.1997C23.1085 5.14474 22.0374 4.18882 20.7278 3.79865C20.3948 3.6996 20.0483 3.63808 19.7017 3.63357C19.6702 3.63357 19.3384 3.64856 19.3384 3.64856C19.3384 3.64856 21.1643 -1.03047 25.3332 0.234582Z"/>
</g>
<defs>
<clipPath id="paint0_diamond_22768_28904_clip_path"><path d="M43.9811 8.87782C43.5851 9.15339 43.0137 8.99479 42.7595 8.59662C42.5087 8.17595 42.3726 7.62931 42.2028 7.16927C42.097 6.88132 42.0262 6.59113 41.8226 6.34368C41.6809 6.17046 41.5043 6.05573 41.2973 5.9725C40.8519 5.79591 40.3829 5.67218 39.9375 5.48996C39.8261 5.44385 39.6349 5.36624 39.5359 5.30775C39.3076 5.1874 39.1186 5.02318 39.041 4.7701C38.9735 4.55639 38.9881 4.31007 39.0939 4.1121C39.4932 3.36075 41.2579 3.37087 41.817 2.7185C41.9958 2.50816 42.0824 2.22696 42.1758 1.97051C42.2005 1.89965 42.2219 1.81304 42.2568 1.74781C42.3524 1.42949 42.6403 0.55441 42.8349 0.329453C42.9496 0.18998 43.1037 0.0909989 43.2769 0.0448828C43.5053 -0.013606 43.7493 0.0235119 43.9541 0.140489C44.2442 0.310332 44.4388 0.731001 44.5198 1.04257C44.5603 1.13255 44.6121 1.29902 44.6435 1.39125C44.7144 1.59484 44.783 1.8018 44.8505 2.00988C44.9157 2.20784 44.9866 2.4238 45.098 2.60377C45.1756 2.72749 45.2802 2.8321 45.4039 2.91308C45.6637 3.08293 45.9449 3.14141 46.2329 3.25277C46.7087 3.43498 47.4105 3.56771 47.7851 3.93214C48.0292 4.17059 48.064 4.62725 47.8964 4.91183C47.8256 5.0288 47.757 5.10304 47.6523 5.1964C47.3801 5.4281 46.5264 5.7093 46.1688 5.82403C45.2903 6.10522 45.1115 6.2447 44.8213 7.10628L44.5581 7.87563C44.4343 8.23669 44.323 8.65736 43.9833 8.87669L43.9811 8.87782Z"/></clipPath><clipPath id="paint1_diamond_22768_28904_clip_path"><path d="M2.27652 20.4173C1.83014 22.1805 4.00766 23.0885 5.27977 23.5972C7.57496 24.5186 9.88965 25.3515 12.2403 26.1243C14.024 26.7096 15.8406 27.3564 17.3243 28.5509C20.0065 30.7539 21.0236 33.9308 22.0586 37.0987C22.2087 37.5609 22.3527 38.0426 22.5057 38.5258C22.7817 39.3842 23.0907 40.2456 23.5258 41.0124C23.6383 41.2075 23.7583 41.3966 23.8903 41.5767C23.9263 41.6247 23.9616 41.6652 23.9976 41.7147C23.9811 41.7372 23.9631 41.7612 23.9466 41.7837C21.5734 44.8121 19.3059 44.3424 19.3374 44.3679C19.4424 44.608 18.8019 43.1374 18.4989 42.189C18.3038 41.5797 18.1088 40.9629 17.9093 40.3446C17.9138 40.3401 17.9183 40.3356 17.9228 40.3296C17.2658 38.2437 16.5592 36.1758 15.3996 34.297C14.9631 33.5901 14.366 32.9779 13.6745 32.5247C13.5139 32.4196 13.3504 32.3221 13.1824 32.2305C12.3754 31.7893 11.5188 31.4367 10.6697 31.09C9.60462 30.6563 8.53054 30.2497 7.45795 29.8385C6.39586 29.4318 5.33377 29.0251 4.28519 28.5884C3.83515 28.4008 3.38661 28.2073 2.94408 27.9987C2.58405 27.8291 2.20452 27.679 1.86699 27.4659C0.67889 26.7141 -0.00516701 25.1984 -0.00516701 23.8118C-0.00516701 21.5038 2.34581 20.2461 2.34581 20.2461C2.30146 20.3375 2.28654 20.3754 2.27652 20.4173Z"/></clipPath><clipPath id="paint2_diamond_22768_28904_clip_path"><path d="M46.031 20.4501C45.9395 20.3931 45.6588 20.2402 45.6588 20.2402C45.6588 20.2402 45.6962 20.3493 45.7127 20.4184C46.1492 22.1771 43.9773 23.0868 42.7052 23.597C40.41 24.5184 38.0953 25.3513 35.7446 26.1242C33.961 26.7094 32.1443 27.3562 30.6607 28.5507C27.9785 30.7537 26.9614 33.9306 25.9263 37.0985C25.7763 37.5607 25.6323 38.0424 25.4793 38.5256C25.2033 39.384 24.8943 40.2454 24.4592 41.0122C24.3467 41.2073 24.2267 41.3964 24.0947 41.5765C24.0422 41.647 23.9897 41.7221 23.9387 41.7911C21.5655 44.8194 19.3046 44.3403 19.3361 44.3658C20.4927 47.0309 22.8061 48.6506 25.3278 47.7817C27.7085 46.9609 28.7766 44.4067 29.4846 42.1888C29.6796 41.5795 29.8747 40.9627 30.0742 40.3444C30.0697 40.3399 30.0652 40.3354 30.0607 40.3294C30.7177 38.2435 31.4243 36.1756 32.5839 34.2968C33.0204 33.59 33.6175 32.9777 34.309 32.5245C34.4695 32.4194 34.6346 32.3219 34.8011 32.2304C35.6081 31.7892 36.4632 31.4365 37.3138 31.0899C38.3789 30.6562 39.4529 30.2495 40.5255 29.8383C41.5876 29.4316 42.6497 29.0249 43.6983 28.5882C44.1483 28.4007 44.5969 28.2071 45.0394 27.9985C45.3994 27.8289 45.779 27.6788 46.1165 27.4657C47.3091 26.7154 47.9901 25.1997 47.9931 23.8131C47.9976 22.419 47.1996 21.1705 46.0325 20.4501H46.031Z"/></clipPath><clipPath id="paint3_diamond_22768_28904_clip_path"><path d="M2.27634 20.4183C2.29725 20.3297 2.32744 20.2853 2.33944 20.2523C4.99766 18.8086 11.6341 16.8317 13.6728 15.4751C14.3628 15.0219 14.9614 14.4096 15.3979 13.7028C16.8965 11.2913 17.6451 8.51202 18.5002 5.82883C18.8032 4.87891 19.3387 3.64987 19.3387 3.64987C19.3387 3.64987 19.6733 3.63336 19.7048 3.63486C20.0528 3.64086 20.3993 3.70089 20.7309 3.79994C22.0405 4.19011 23.113 5.14603 23.9411 6.201C23.9621 6.22801 23.9756 6.26103 23.9951 6.28954C23.4881 6.96184 23.1385 7.74218 22.849 8.54204C22.705 8.93821 22.5745 9.33739 22.4425 9.72756C22.063 10.8531 21.7134 11.9876 21.3129 13.1056C20.9184 14.207 20.4728 15.295 19.8968 16.3155C19.3192 17.3404 18.6052 18.2919 17.7366 19.0887C17.6016 19.2133 17.4636 19.3348 17.3196 19.4504C15.8359 20.6449 14.0178 21.2917 12.2357 21.8769C10.245 22.5312 8.27383 23.2531 6.32367 24.0109C5.97264 23.8743 5.62761 23.7378 5.27808 23.5982C4.00748 23.0895 1.83783 22.1914 2.27634 20.4183Z"/></clipPath><clipPath id="paint4_diamond_22768_28904_clip_path"><path d="M25.3332 0.234582C27.7424 0.965402 28.782 3.60956 29.49 5.82754C30.3451 8.51071 31.0952 11.2899 32.5923 13.7015C33.0288 14.4083 33.6259 15.0206 34.3174 15.4738C36.3561 16.8304 43.0016 18.7977 45.6599 20.2414C45.6704 20.2744 45.6989 20.3584 45.7139 20.4169C46.1504 22.1757 43.9827 23.0881 42.7106 23.5968C42.3611 23.7379 42.0161 23.873 41.665 24.0095C39.7149 23.2517 37.7437 22.5299 35.753 21.8756C33.9694 21.2903 32.1527 20.6435 30.6691 19.449C30.5266 19.3335 30.3886 19.2119 30.2521 19.0874C29.3835 18.289 28.671 17.3391 28.0919 16.3141C27.5159 15.2937 27.0703 14.2057 26.6758 13.1042C26.2753 11.9862 25.9257 10.8517 25.5462 9.72625C25.4142 9.33608 25.2837 8.9369 25.1397 8.54073C24.8381 7.70786 24.4811 6.89 23.9381 6.1997C23.1085 5.14474 22.0374 4.18882 20.7278 3.79865C20.3948 3.6996 20.0483 3.63808 19.7017 3.63357C19.6702 3.63357 19.3384 3.64856 19.3384 3.64856C19.3384 3.64856 21.1643 -1.03047 25.3332 0.234582Z"/></clipPath><linearGradient id="paint0_diamond_22768_28904" x1="0" y1="0" x2="500" y2="500" gradientUnits="userSpaceOnUse">
<stop stop-color="#9959FF"/>
<stop offset="0.495192" stop-color="#ED49AE"/>
<stop offset="1" stop-color="#FF9728"/>
</linearGradient>
<linearGradient id="paint1_diamond_22768_28904" x1="0" y1="0" x2="500" y2="500" gradientUnits="userSpaceOnUse">
<stop stop-color="#FF9728"/>
<stop offset="0.705932" stop-color="#ED49AE"/>
<stop offset="1" stop-color="#9959FF"/>
</linearGradient>
<linearGradient id="paint2_diamond_22768_28904" x1="0" y1="0" x2="500" y2="500" gradientUnits="userSpaceOnUse">
<stop stop-color="#9959FF"/>
<stop offset="0.374174" stop-color="#ED49AE"/>
<stop offset="0.833502" stop-color="#FF9728"/>
</linearGradient>
<linearGradient id="paint3_diamond_22768_28904" x1="0" y1="0" x2="500" y2="500" gradientUnits="userSpaceOnUse">
<stop stop-color="#FF9728"/>
<stop offset="0.660356" stop-color="#ED49AE"/>
<stop offset="0.938149" stop-color="#9959FF"/>
</linearGradient>
<linearGradient id="paint4_diamond_22768_28904" x1="0" y1="0" x2="500" y2="500" gradientUnits="userSpaceOnUse">
<stop offset="0.0583225" stop-color="#FF9728"/>
<stop offset="0.586183" stop-color="#ED49AE"/>
<stop offset="1" stop-color="#9959FF"/>
</linearGradient>
<clipPath id="clip0_22768_28904">
<rect width="48" height="48" fill="white"/>
</clipPath>
</defs>
</svg>
