<!-- This Source Code Form is subject to the terms of the Mozilla Public
   - License, v. 2.0. If a copy of the MPL was not distributed with this
   - file, You can obtain one at http://mozilla.org/MPL/2.0/. -->
<svg xmlns="http://www.w3.org/2000/svg" viewBox="0 0 16 16" width="16" height="16">
  <line x1="11" y1="11.5" x2="14" y2="11.5" stroke="context-fill"/>
  <path d="M15.5 9.5V14L14 15.5H9.5V9.5H15.5Z" stroke="context-fill" fill="none"/>
  <line x1="11" y1="13.5" x2="14" y2="13.5" stroke="context-fill"/>
  <path fill="context-fill" d="M13 8.5h-4.5v5.5H4a1 1 0 0 1-1-1V8a1 1 0 0 1 1-1V6a4 4 0 1 1 8 0v1a1 1 0 0 1 1 1zM8 4a2 2 0 0 0-2 2v1h4V6a2 2 0 0 0-2-2z"/>
</svg>
